<svg width="11" height="10" viewBox="0 0 11 10" fill="#CCCCCC" xmlns="http://www.w3.org/2000/svg">
<path d="M8.008 6.696C8.008 6.728 8.008 6.77067 8.008 6.824C8.072 7.47467 8.104 7.96533 8.104 8.296C8.104 8.616 8.024 8.88267 7.864 9.096C7.704 9.30933 7.50133 9.42667 7.256 9.448C7.01067 9.50133 6.744 9.46933 6.456 9.352C6.24267 9.24533 5.944 9.064 5.56 8.808C5.31467 8.648 5.128 8.53067 5 8.456C4.66933 8.72267 4.40267 8.92 4.2 9.048C4.02933 9.16533 3.864 9.25067 3.704 9.304C3.40533 9.432 3.128 9.47467 2.872 9.432C2.616 9.37867 2.408 9.25067 2.248 9.048C2.09867 8.84533 2.01867 8.57867 2.008 8.248C2.008 7.91733 2.04 7.384 2.104 6.648C1.69867 6.52 1.39467 6.38667 1.192 6.248C0.925334 6.12 0.658667 5.92267 0.392 5.656C0.178667 5.432 0.0773334 5.192 0.0880001 4.936C0.0986667 4.66933 0.221333 4.424 0.456 4.2C0.626667 3.99733 0.856 3.82667 1.144 3.688C1.31467 3.592 1.58133 3.48 1.944 3.352C1.96533 3.352 1.99733 3.34667 2.04 3.336C2.09333 3.31467 2.13067 3.304 2.152 3.304L2.008 2.2C1.99733 1.96533 2.02933 1.65067 2.104 1.256C2.17867 0.978666 2.328 0.781333 2.552 0.664C2.78667 0.546666 3.05333 0.525332 3.352 0.599999C3.61867 0.663999 3.88533 0.781333 4.152 0.952C4.344 1.06933 4.56267 1.23467 4.808 1.448C4.85067 1.46933 4.89867 1.51733 4.952 1.592L5 1.656C5.53333 1.25067 5.94933 0.962666 6.248 0.792C6.58933 0.568 6.92533 0.503999 7.256 0.599999C7.50133 0.653333 7.69333 0.786666 7.832 0.999999C7.98133 1.20267 8.072 1.46933 8.104 1.8V2.6C8.104 2.70667 8.07733 2.86667 8.024 3.08C7.992 3.21867 7.96533 3.32533 7.944 3.4C8.24267 3.496 8.52533 3.61333 8.792 3.752C9.06933 3.88 9.26667 3.98667 9.384 4.072C9.58667 4.21067 9.74667 4.37067 9.864 4.552C9.98133 4.72267 10.04 4.904 10.04 5.096C10.04 5.288 9.98133 5.47467 9.864 5.656C9.74667 5.82667 9.58667 5.98133 9.384 6.12C9.256 6.20533 9.05867 6.31733 8.792 6.456C8.6 6.488 8.33333 6.568 7.992 6.696H8.008ZM5.096 6.648C5.14933 6.648 5.23467 6.64267 5.352 6.632C5.512 6.61067 5.62933 6.6 5.704 6.6C5.84267 6.6 5.96 6.53067 6.056 6.392C6.38667 5.85867 6.616 5.44267 6.744 5.144C6.776 5.10133 6.792 5.048 6.792 4.984C6.792 4.92 6.776 4.87733 6.744 4.856C6.584 4.54667 6.33333 4.13067 5.992 3.608C5.94933 3.50133 5.86933 3.448 5.752 3.448C5.18667 3.448 4.75467 3.432 4.456 3.4C4.18933 3.4 3.98667 3.51733 3.848 3.752C3.72 3.95467 3.61867 4.12 3.544 4.248L3.32 4.664C3.224 4.80267 3.16533 4.904 3.144 4.968C3.13333 5.02133 3.13333 5.08 3.144 5.144C3.16533 5.19733 3.224 5.29867 3.32 5.448L3.544 5.848L3.736 6.168C3.84267 6.33867 3.91733 6.44533 3.96 6.488C4.024 6.56267 4.09867 6.60533 4.184 6.616C4.248 6.62667 4.38133 6.632 4.584 6.632L5.096 6.648ZM2.2 6.248C2.40267 5.71467 2.552 5.33067 2.648 5.096V4.904L2.2 3.752C1.60267 3.93333 1.13867 4.14667 0.808 4.392C0.573333 4.57333 0.456 4.77067 0.456 4.984C0.456 5.18667 0.573333 5.37333 0.808 5.544C0.978667 5.72533 1.19733 5.87467 1.464 5.992C1.624 6.06667 1.86933 6.152 2.2 6.248ZM7.848 3.704C7.72 4.00267 7.55467 4.41867 7.352 4.952L7.336 5C7.32533 5.032 7.33067 5.048 7.352 5.048C7.55467 5.58133 7.72 6.01333 7.848 6.344C7.976 6.28 8.17333 6.17867 8.44 6.04C8.792 5.88 9.04267 5.752 9.192 5.656C9.46933 5.47467 9.608 5.272 9.608 5.048C9.608 4.824 9.47467 4.62667 9.208 4.456C9.02667 4.296 8.73333 4.12 8.328 3.928C8.104 3.832 7.944 3.75733 7.848 3.704ZM2.504 3.192C3.03733 3.13867 3.45333 3.07467 3.752 3C3.77333 3 3.79467 2.98933 3.816 2.968L3.848 2.952C4.04 2.68533 4.30667 2.34933 4.648 1.944C4.38133 1.72 4.17867 1.55467 4.04 1.448C3.80533 1.26667 3.576 1.13333 3.352 1.048C3.07467 0.951999 2.85067 0.957333 2.68 1.064C2.50933 1.16 2.39733 1.35733 2.344 1.656C2.32267 1.85867 2.328 2.09333 2.36 2.36C2.38133 2.52 2.424 2.77067 2.488 3.112L2.504 3.192ZM7.496 3.192C7.496 3.18133 7.50133 3.15467 7.512 3.112C7.53333 3.05867 7.544 3.02133 7.544 3C7.61867 2.66933 7.656 2.41333 7.656 2.232C7.67733 1.93333 7.64 1.672 7.544 1.448C7.50133 1.27733 7.42133 1.15467 7.304 1.08C7.18667 1.00533 7.05333 0.978666 6.904 0.999999C6.63733 1.04267 6.376 1.14933 6.12 1.32C5.96 1.416 5.74133 1.592 5.464 1.848L5.352 1.944C5.52267 2.17867 5.77333 2.49867 6.104 2.904L6.248 3.048L7.496 3.208V3.192ZM2.504 6.792C2.49333 6.856 2.47733 6.94667 2.456 7.064C2.392 7.36267 2.35467 7.58133 2.344 7.72C2.32267 7.96533 2.344 8.19467 2.408 8.408C2.45067 8.65333 2.552 8.824 2.712 8.92C2.88267 9.016 3.096 9.02667 3.352 8.952C3.56533 8.888 3.784 8.78133 4.008 8.632C4.136 8.536 4.32267 8.38133 4.568 8.168L4.696 8.056C4.504 7.78933 4.23733 7.45333 3.896 7.048C3.832 6.984 3.784 6.952 3.752 6.952C3.368 6.952 2.952 6.89867 2.504 6.792ZM5.304 8.056C5.44267 8.23733 5.64533 8.424 5.912 8.616C6.15733 8.79733 6.38667 8.92533 6.6 9C7.13333 9.16 7.448 8.97867 7.544 8.456C7.58667 8.22133 7.59733 7.96533 7.576 7.688C7.56533 7.51733 7.528 7.26133 7.464 6.92L7.448 6.856L7.128 6.888C6.68 6.92 6.35467 6.97333 6.152 7.048C6.056 7.10133 5.96533 7.176 5.88 7.272C5.82667 7.336 5.75733 7.432 5.672 7.56C5.59733 7.66667 5.53867 7.752 5.496 7.816C5.464 7.86933 5.4 7.94933 5.304 8.056ZM5.608 2.952C5.53333 2.86667 5.42667 2.74933 5.288 2.6C5.16 2.45067 5.064 2.33333 5 2.248L4.92 2.36C4.71733 2.616 4.54667 2.81333 4.408 2.952H5.608ZM5.608 7.048H4.456C4.52 7.13333 4.616 7.25067 4.744 7.4C4.88267 7.54933 4.984 7.66667 5.048 7.752C5.12267 7.63467 5.24533 7.47467 5.416 7.272L5.608 7.048ZM3.544 6.552C3.50133 6.47733 3.43733 6.36533 3.352 6.216C3.17067 5.91733 3.03733 5.67733 2.952 5.496L2.648 6.344C2.82933 6.41867 3.128 6.488 3.544 6.552ZM7.048 5.496L6.456 6.552L7.352 6.392C7.30933 6.17867 7.208 5.88 7.048 5.496ZM2.952 4.504L3.544 3.448L2.648 3.592L2.712 3.8C2.78667 4.10933 2.86667 4.344 2.952 4.504ZM6.456 3.448C6.52 3.58667 6.616 3.75733 6.744 3.96C6.88267 4.152 6.984 4.31733 7.048 4.456C7.18667 4.05067 7.288 3.768 7.352 3.608C7.096 3.59733 6.79733 3.544 6.456 3.448Z" fill="white"/>
</svg>
